# xmcd CD database file
#
# Track frame offsets:
#	150
#	25951
#	48435
#	70481
#	94011
#	112908
#	134848
#	155688
#	179317
#	202702
#	219440
#
# Disc length: 3195 seconds
#
# Revision: 1
# Processed by: cddbd v1.5PL3 Copyright (c) Steve Scherf et al.
# Submitted via: CDex 1.50beta8
#
DISCID=9a0c790b
DTITLE=Last Autumn's Dream - Last Autumn's Dream
DYEAR=2003
DGENRE=Hard Rock
TTITLE0=Again And Again
TTITLE1=Pictures Of Love
TTITLE2=Guardian Angel
TTITLE3=Break The Chains (of destiny)
TTITLE4=Blink Of The Eye
TTITLE5=Talk To Me
TTITLE6=The One
TTITLE7=I Never Let You Go
TTITLE8=High Up
TTITLE9=Movin' On
TTITLE10=Going Home
EXTD=YEAR: 2003
EXTT0=
EXTT1=
EXTT2=
EXTT3=
EXTT4=
EXTT5=
EXTT6=
EXTT7=
EXTT8=
EXTT9=
EXTT10=
PLAYORDER=
